<svg width="512" height="512" viewBox="0 0 512 512" fill="none" xmlns="http://www.w3.org/2000/svg">
<g clip-path="url(#clip0)">
<rect width="512" height="512" fill="#5867DD"/>
<path d="M253.15 169.7C267.617 169.7 280.683 172.85 292.35 179.15C304.017 185.217 313.117 194.433 319.65 206.8C326.417 219.167 329.8 234.217 329.8 251.95V365H298.3V256.5C298.3 237.367 293.517 222.783 283.95 212.75C274.383 202.483 261.317 197.35 244.75 197.35C227.95 197.35 214.533 202.6 204.5 213.1C194.7 223.6 189.8 238.883 189.8 258.95V365H157.95V106H189.8V200.5C196.1 190.7 204.733 183.117 215.7 177.75C226.9 172.383 239.383 169.7 253.15 169.7ZM391.977 367.1C385.91 367.1 380.777 365 376.577 360.8C372.377 356.6 370.277 351.467 370.277 345.4C370.277 339.333 372.377 334.2 376.577 330C380.777 325.8 385.91 323.7 391.977 323.7C397.81 323.7 402.71 325.8 406.677 330C410.877 334.2 412.977 339.333 412.977 345.4C412.977 351.467 410.877 356.6 406.677 360.8C402.71 365 397.81 367.1 391.977 367.1Z" fill="white"/>
</g>
<defs>
<clipPath id="clip0">
<rect width="512" height="512" fill="white"/>
</clipPath>
</defs>
</svg>
